<?xml version="1.0" standalone="no"?>
<!DOCTYPE svg PUBLIC "-//W3C//DTD SVG 20010904//EN"
 "http://www.w3.org/TR/2001/REC-SVG-20010904/DTD/svg10.dtd">
<svg version="1.0" xmlns="http://www.w3.org/2000/svg"
 width="300.000000pt" height="242.000000pt" viewBox="0 0 300.000000 242.000000"
 preserveAspectRatio="xMidYMid meet">
<metadata>
Created by potrace 1.10, written by Peter Selinger 2001-2011
</metadata>
<g transform="translate(0.000000,242.000000) scale(0.100000,-0.100000)"
fill="#000000" stroke="none">
<path d="M1963 2110 c-18 -10 -41 -36 -52 -57 -22 -45 -65 -182 -59 -189 3 -2
17 37 32 87 32 107 70 156 127 165 52 9 103 -18 125 -64 9 -20 18 -38 19 -40
1 -1 36 13 78 32 164 75 282 73 366 -7 127 -121 95 -406 -72 -625 -31 -41 -43
-64 -35 -66 7 -3 45 -14 83 -25 153 -46 224 -112 233 -216 4 -50 0 -65 -32
-130 -57 -111 -178 -224 -333 -312 -71 -39 -85 -55 -20 -22 222 114 397 311
397 449 0 60 -25 115 -72 159 -31 30 -156 85 -219 98 -16 3 -29 7 -29 10 0 2
17 27 39 56 101 136 144 257 145 402 1 84 -3 108 -22 150 -31 68 -66 101 -129
125 -90 34 -172 24 -300 -35 l-73 -34 -15 34 c-28 68 -117 95 -182 55z"/>
<path d="M2325 1956 c-38 -12 -103 -39 -142 -60 -67 -35 -74 -42 -83 -80 -43
-168 -198 -694 -229 -778 -161 -428 -324 -591 -468 -465 -50 44 -114 182 -148
318 -21 82 -30 108 -36 94 -10 -27 -11 -43 -1 -27 5 7 15 -18 26 -65 54 -233
151 -373 257 -373 53 0 126 49 179 118 118 157 198 355 326 807 51 181 99 348
106 370 12 36 20 44 98 83 47 23 115 49 152 58 60 15 72 15 105 3 47 -18 63
-48 63 -120 0 -160 -117 -350 -265 -428 -33 -17 -49 -29 -35 -25 73 17 189
124 247 225 52 92 78 238 53 303 -12 33 -66 66 -105 66 -16 -1 -61 -11 -100
-24z"/>
<path d="M1840 1849 c0 -2 -14 -57 -30 -123 -17 -65 -30 -126 -29 -135 1 -9
16 44 35 118 19 74 32 137 29 139 -3 3 -5 3 -5 1z"/>
<path d="M1158 1624 c-30 -16 -48 -43 -48 -71 1 -11 6 -7 14 13 31 70 98 84
150 32 26 -27 36 -52 55 -131 13 -54 26 -96 28 -93 8 8 -38 183 -57 214 -31
51 -89 65 -142 36z"/>
<path d="M1736 1414 c-16 -63 -26 -117 -23 -120 2 -2 16 48 31 112 16 63 26
117 23 120 -2 2 -16 -48 -31 -112z"/>
<path d="M1103 1455 c0 -38 2 -53 4 -32 2 20 2 52 0 70 -2 17 -4 1 -4 -38z"/>
<path d="M1091 1362 c0 -12 -15 -93 -32 -178 -16 -86 -28 -158 -26 -160 9 -9
70 320 64 344 -3 12 -5 11 -6 -6z"/>
<path d="M2177 1362 c-10 -10 -17 -35 -17 -56 0 -51 34 -81 103 -90 118 -15
288 -67 347 -107 34 -23 20 -60 -48 -128 -112 -111 -295 -202 -557 -277 -71
-20 -143 -43 -158 -51 -70 -35 -71 -140 -1 -183 28 -18 43 -21 80 -15 83 12
454 148 441 162 -2 2 -34 -10 -70 -27 -121 -55 -329 -122 -384 -123 -45 -2
-56 2 -80 26 -21 20 -28 37 -28 67 0 64 28 83 185 129 176 52 268 85 361 132
137 68 269 183 285 246 9 34 -17 58 -95 87 -99 36 -128 45 -235 65 -56 11
-106 27 -117 37 -23 21 -25 71 -3 102 18 27 13 29 -9 4z"/>
<path d="M1370 1315 c0 -19 52 -226 56 -222 2 2 -7 53 -22 113 -24 99 -34 132
-34 109z"/>
<path d="M1681 1198 c-44 -161 -138 -388 -161 -388 -6 0 -10 5 -10 12 0 6 -2
9 -5 6 -8 -7 5 -38 16 -38 14 0 85 148 123 259 39 112 69 221 63 227 -2 2 -14
-33 -26 -78z"/>
<path d="M1430 1074 c0 -14 47 -185 59 -214 18 -45 11 -12 -20 102 -30 107
-39 133 -39 112z"/>
<path d="M987 858 c-15 -61 -26 -113 -24 -115 3 -2 17 46 32 107 15 61 26 113
23 115 -2 2 -16 -46 -31 -107z"/>
<path d="M1186 879 c-10 -33 -16 -63 -13 -65 2 -3 12 23 21 57 10 33 16 63 13
65 -2 3 -12 -23 -21 -57z"/>
<path d="M1135 712 c-119 -354 -252 -565 -402 -638 -143 -70 -273 -13 -358
157 -69 136 -155 439 -140 496 11 47 76 48 95 1 5 -13 9 -16 9 -8 1 21 -10 35
-37 49 -19 10 -28 10 -47 -3 -13 -9 -26 -25 -30 -36 -9 -30 21 -178 64 -309
70 -212 126 -304 219 -359 39 -22 58 -27 112 -26 177 2 331 174 469 521 46
117 85 233 79 238 -2 2 -17 -35 -33 -83z"/>
<path d="M341 687 c-1 -27 33 -143 73 -246 83 -215 155 -288 248 -252 38 14
113 98 157 175 40 70 114 252 126 311 3 17 -12 -17 -33 -75 -117 -320 -253
-470 -354 -390 -58 45 -142 222 -192 405 -13 50 -25 82 -25 72z"/>
</g>
</svg>
