<?xml version="1.0" encoding="UTF-8"?>
<svg version="1.1" xmlns="http://www.w3.org/2000/svg" width="857" height="568">
<path d="M0 0 C282.81 0 565.62 0 857 0 C857 187.44 857 374.88 857 568 C574.19 568 291.38 568 0 568 C0 380.56 0 193.12 0 0 Z " fill="#1E1E1E" transform="translate(0,0)"/>
<path d="M0 0 C5.06474387 2.87083711 8.26536741 6.75985702 10.625 12.0625 C11.01991369 14.05125697 11.36745522 16.05133571 11.625 18.0625 C12.5068396 17.64738159 12.5068396 17.64738159 13.40649414 17.22387695 C56.26917855 -2.85951637 56.26917855 -2.85951637 78.1875 3.25 C90.32732575 7.71378473 98.84365495 14.43297354 104.625 26.0625 C114.10362333 48.0384165 110.40259736 73.8719731 101.86987305 95.61791992 C95.97521438 109.73183025 88.66211035 122.39409277 78.91015625 134.171875 C77.07122916 136.49803918 75.86835936 138.42350429 74.625 141.0625 C75.25889648 141.2483667 75.89279297 141.4342334 76.54589844 141.62573242 C120.92927664 154.70456118 120.92927664 154.70456118 131.625 174.0625 C136.34062107 183.94048518 135.38087658 193.56400323 131.953125 203.7265625 C116.21662615 243.2529449 74.93524955 267.87543165 37.625 284.0625 C23.10995827 290.18506691 8.37266343 295.63054415 -6.5625 300.625 C-7.80878174 301.04257568 -9.05506348 301.46015137 -10.33911133 301.89038086 C-33.36927169 309.45817419 -33.36927169 309.45817419 -42.48828125 306.33984375 C-48.90525411 302.94585596 -52.09865588 297.77771515 -54.375 291.0625 C-55.13786243 285.05495835 -54.26384845 281.75734878 -50.77734375 276.8125 C-43.49778744 267.7282626 -29.82846423 265.97432997 -19.07333374 263.00244141 C9.68509793 255.02121285 38.10402897 245.89196305 63.625 230.0625 C65.12160156 229.14597656 65.12160156 229.14597656 66.6484375 228.2109375 C80.29698777 219.50595662 97.01268387 207.40028262 101.4375 191.0625 C100.46719763 187.47984508 99.78844069 187.09658716 96.75 185.125 C75.54051242 173.69760331 51.36771269 168.29803098 27.6875 165.125 C22.55834213 164.28475334 20.08546949 162.96661942 16.625 159.0625 C13.66421512 154.62132268 12.59063859 150.32800147 13.625 145.0625 C15.55606475 140.47296397 17.87537254 137.02520395 22.48828125 134.953125 C23.96466783 134.38844793 25.44823763 133.84228782 26.9375 133.3125 C49.31373647 124.35422158 63.97491096 106.66996143 74.27734375 85.34765625 C78.92403472 74.02050522 81.79319102 62.43839463 81.875 50.1875 C81.895625 49.42308594 81.91625 48.65867188 81.9375 47.87109375 C81.98162248 41.37405798 81.01681929 35.51896306 76.3125 30.6875 C68.54600743 25.99148124 59.84037423 25.72776088 51.13525391 27.59716797 C38.21356672 30.917572 26.12723711 36.02621203 14.69165039 42.89208984 C12.625 44.0625 12.625 44.0625 10.49389648 44.87744141 C6.4078537 46.68037487 4.92323668 48.36638534 3.14160156 52.52490234 C1.66705742 57.01732853 0.55570821 61.59626864 -0.5625 66.1875 C-0.99038161 67.84304915 -1.42122132 69.49783653 -1.85498047 71.15185547 C-2.88666072 75.11015387 -3.88654557 79.07547296 -4.87237549 83.04541016 C-5.88297312 87.10105444 -6.94165855 91.1441167 -8 95.1875 C-8.18014648 95.8892334 -8.36029297 96.5909668 -8.54589844 97.31396484 C-10.55123803 105.00809938 -12.98489649 112.57085633 -15.359375 120.15722656 C-17.59945182 127.37407783 -19.63625596 134.61484967 -21.5 141.9375 C-24.16733755 152.40930276 -27.16412103 162.74529046 -30.375 173.0625 C-30.66552246 174.00109863 -30.95604492 174.93969727 -31.25537109 175.90673828 C-32.16422185 178.83558156 -33.08053453 181.761973 -34 184.6875 C-34.27706787 185.57574463 -34.55413574 186.46398926 -34.83959961 187.37915039 C-36.74991033 193.3974494 -38.97844994 199.22313698 -41.375 205.0625 C-42.25160765 207.25638835 -43.12788725 209.45040779 -44.00390625 211.64453125 C-71.32694983 279.31558183 -71.32694983 279.31558183 -100.3125 293.5 C-110.02793715 295.28446805 -118.24439127 294.14957249 -126.53125 288.625 C-144.64182797 274.13653762 -152.50968972 243.79747909 -157.375 222.0625 C-157.71337891 220.66837891 -157.71337891 220.66837891 -158.05859375 219.24609375 C-158.96231805 215.46291685 -159.62648341 211.96049289 -159.375 208.0625 C-160.035 208.0625 -160.695 208.0625 -161.375 208.0625 C-161.48529541 208.66255859 -161.59559082 209.26261719 -161.70922852 209.88085938 C-162.91939754 216.21908136 -164.49765952 222.37284255 -166.3125 228.5625 C-166.56451172 229.43519531 -166.81652344 230.30789063 -167.07617188 231.20703125 C-167.5878665 232.97375182 -168.10336887 234.73937374 -168.62255859 236.50390625 C-169.08996182 238.09325922 -169.55220355 239.68415143 -170.00634766 241.27734375 C-180.89658232 278.81978079 -194.5898651 318.70242299 -218.375 350.0625 C-219.04233154 350.94252686 -219.70966309 351.82255371 -220.3972168 352.72924805 C-231.68537869 367.4409572 -245.45254473 380.99244571 -264.375 384.0625 C-273.954797 384.95871613 -284.0946596 385.54313514 -292.375 380.0625 C-293.1278125 379.61519531 -293.880625 379.16789062 -294.65625 378.70703125 C-320.16462269 362.84932623 -329.49262683 327.92328026 -337.1875 300.6875 C-337.37658936 300.02166901 -337.56567871 299.35583801 -337.76049805 298.66983032 C-344.77440757 273.81073929 -344.77440757 273.81073929 -344.875 261.375 C-344.92140625 259.42013672 -344.92140625 259.42013672 -344.96875 257.42578125 C-344.375 254.0625 -344.375 254.0625 -342.02734375 251.66796875 C-338.91836431 249.78609754 -337.02142999 249.0625 -333.375 249.0625 C-328.7850627 251.2224705 -326.94718397 253.37088013 -325.07397461 258.0234375 C-323.80957502 261.71196889 -323.06245437 265.5040973 -322.25 269.3125 C-315.84254058 297.47364863 -305.85559799 338.02416464 -281.375 356.0625 C-275.23557682 358.10897439 -269.29096601 357.84174068 -263.375 355.1875 C-249.38886296 347.32029792 -241.08436353 332.39208888 -233.6875 318.6875 C-233.35548584 318.07769287 -233.02347168 317.46788574 -232.68139648 316.83959961 C-225.80718608 303.67696367 -220.94900825 289.50648037 -216.3125 275.4375 C-216.0542041 274.6596817 -215.7959082 273.8818634 -215.52978516 273.08047485 C-211.50747865 260.94578281 -207.93357855 248.76724708 -204.93359375 236.3359375 C-204.14414742 233.12294613 -203.25753248 229.93850446 -202.375 226.75 C-196.43774609 204.41810671 -191.98775819 181.76339706 -187.74993896 159.05981445 C-187.40809612 157.23880433 -187.05916315 155.41912881 -186.70947266 153.59960938 C-184.90218058 144.15610123 -183.4102357 134.81770746 -182.83203125 125.2109375 C-182.79115891 124.53495514 -182.75028656 123.85897278 -182.70817566 123.1625061 C-182.51526879 119.84474525 -182.35543031 116.53091839 -182.2331543 113.20947266 C-181.87857968 105.63202536 -181.3899903 99.25622853 -175.89428711 93.51586914 C-171.09837619 89.29881334 -167.0930948 88.70961462 -160.94140625 88.78125 C-155.83399095 89.34096675 -152.70707098 92.04021297 -148.6875 95.125 C-142.58689331 102.87441931 -140.966174 114.00769676 -138.66015625 123.3984375 C-138.31961468 124.76742477 -137.97857461 126.13628812 -137.6370697 127.5050354 C-136.7443306 131.08929503 -135.85883938 134.67530691 -134.97479248 138.26171875 C-134.26546499 141.13416069 -133.55100285 144.00531278 -132.83624172 146.87640667 C-126.96744436 170.45238489 -126.96744436 170.45238489 -124.37713623 181.60816956 C-121.56566017 193.69671416 -118.17526401 205.59125742 -114.6875 217.5 C-114.10047595 219.52135795 -113.51388585 221.54284197 -112.92773438 223.56445312 C-112.36497138 225.50011286 -111.80183477 227.43566402 -111.23828125 229.37109375 C-110.97992996 230.25856796 -110.72157867 231.14604218 -110.45539856 232.06040955 C-109.77072763 234.39717605 -109.07544672 236.7304221 -108.375 239.0625 C-108.02719482 240.23176025 -107.67938965 241.40102051 -107.32104492 242.60571289 C-106.63352855 245.21405835 -106.63352855 245.21405835 -104.375 246.0625 C-104.28605469 245.55460938 -104.19710937 245.04671875 -104.10546875 244.5234375 C-103.06838725 241.02952655 -101.35645445 237.91132846 -99.6875 234.6875 C-79.61423461 195.04536748 -69.06822861 151.04498842 -59.8125 107.8125 C-54.90434951 84.89863893 -49.36123821 62.13706695 -42.625 39.6875 C-42.27260254 38.51300293 -41.92020508 37.33850586 -41.55712891 36.12841797 C-32.56430923 6.75524651 -32.56430923 6.75524651 -22.1875 0 C-14.96551739 -3.52501532 -7.29278134 -3.14741089 0 0 Z " fill="#F7F7F7" transform="translate(514.375,66.9375)"/>
<path d="M0 0 C0.66 0.66 1.32 1.32 2 2 C1.01 3.98 0.02 5.96 -1 8 C-1.66 8 -2.32 8 -3 8 C-3.309375 8.94875 -3.61875 9.8975 -3.9375 10.875 C-5 14 -5 14 -6 16 C-7.97888961 16.72693904 -9.97954558 17.39816251 -12 18 C-11.63648438 17.53851563 -11.27296875 17.07703125 -10.8984375 16.6015625 C-6.81858139 11.30821073 -3.34206594 5.78343325 0 0 Z " fill="#DFDFDF" transform="translate(584,161)"/>
<path d="M0 0 C0.66 0.33 1.32 0.66 2 1 C2 1.66 2 2.32 2 3 C1.01 3 0.02 3 -1 3 C-2.71711243 5.44496043 -2.71711243 5.44496043 -4 8 C-5.65 7.67 -7.3 7.34 -9 7 C-9 7.66 -9 8.32 -9 9 C-9.99 8.67 -10.98 8.34 -12 8 C-9.38928701 5.93318555 -6.66162161 4.06890393 -3.875 2.25 C-3.19179688 1.80140625 -2.50859375 1.3528125 -1.8046875 0.890625 C-0.91136719 0.44976562 -0.91136719 0.44976562 0 0 Z " fill="#DEDEDE" transform="translate(581,295)"/>
<path d="M0 0 C0.66 0.33 1.32 0.66 2 1 C1.93999894 2.6260287 1.8512115 4.25101549 1.75 5.875 C1.70359375 6.77992188 1.6571875 7.68484375 1.609375 8.6171875 C1 11 1 11 -1.046875 12.3203125 C-1.69140625 12.54460937 -2.3359375 12.76890625 -3 13 C-2.68991116 11.39536551 -2.37683713 9.79130769 -2.0625 8.1875 C-1.88847656 7.29417969 -1.71445312 6.40085938 -1.53515625 5.48046875 C-1 3 -1 3 0 0 Z " fill="#DDDDDD" transform="translate(440,234)"/>
<path d="M0 0 C2.39073445 3.82517513 2.55966552 7.59665524 3 12 C2.01 11.01 1.02 10.02 0 9 C-0.66 9.66 -1.32 10.32 -2 11 C-2.28571429 3.57142857 -2.28571429 3.57142857 0 0 Z " fill="#D7D7D7" transform="translate(386,236)"/>
<path d="M0 0 C3.53586014 3.17320782 5.58578031 5.16743695 6 10 C2.36905358 7.35039045 0.10148204 4.98175544 -2 1 C-1.34 0.67 -0.68 0.34 0 0 Z " fill="#DDDDDD" transform="translate(381,344)"/>
<path d="M0 0 C0.33 0 0.66 0 1 0 C1.05389087 1.95803507 1.09274217 3.91648909 1.125 5.875 C1.14820313 6.96554687 1.17140625 8.05609375 1.1953125 9.1796875 C1 12 1 12 -1 14 C-2.33500455 8.65998179 -1.512545 5.16044765 0 0 Z " fill="#D6D6D6" transform="translate(314,286)"/>
<path d="M0 0 C2 3.75 2 3.75 2 6 C1.34 6 0.68 6 0 6 C-0.103125 6.94875 -0.20625 7.8975 -0.3125 8.875 C-1 12 -1 12 -4 14 C-3.52188823 12.22888156 -3.0424722 10.45811517 -2.5625 8.6875 C-2.29566406 7.70136719 -2.02882813 6.71523437 -1.75390625 5.69921875 C-1.21920575 3.78482474 -0.62855462 1.88566385 0 0 Z " fill="#CCCCCC" transform="translate(594,137)"/>
<path d="M0 0 C1.3303125 0.4640625 1.3303125 0.4640625 2.6875 0.9375 C2.3575 1.5975 2.0275 2.2575 1.6875 2.9375 C-2.9325 1.9475 -7.5525 0.9575 -12.3125 -0.0625 C-7.11916422 -2.65916789 -5.33242192 -1.71039948 0 0 Z " fill="#DCDCDC" transform="translate(588.3125,93.0625)"/>
<path d="M0 0 C0.515625 0.2475 1.03125 0.495 1.5625 0.75 C0.2425 1.08 -1.0775 1.41 -2.4375 1.75 C-2.4375 2.41 -2.4375 3.07 -2.4375 3.75 C-4.0875 4.41 -5.7375 5.07 -7.4375 5.75 C-8.0975 5.09 -8.7575 4.43 -9.4375 3.75 C-3.0375 -0.31153846 -3.0375 -0.31153846 0 0 Z " fill="#D8D8D8" transform="translate(348.4375,156.25)"/>
<path d="M0 0 C1.5 1.1875 1.5 1.1875 3 3 C3.1875 5.6875 3.1875 5.6875 3 8 C3.66 8 4.32 8 5 8 C4.67 8.99 4.34 9.98 4 11 C1.35534962 7.8745041 0.15585285 4.91211733 -1 1 C-0.67 0.67 -0.34 0.34 0 0 Z " fill="#E9E9E9" transform="translate(370,324)"/>
<path d="M0 0 C0 0.66 0 1.32 0 2 C-0.99 2.33 -1.98 2.66 -3 3 C-3.33 3.66 -3.66 4.32 -4 5 C-4.99 4.67 -5.98 4.34 -7 4 C-6.67 3.67 -6.34 3.34 -6 3 C-6.66 2.34 -7.32 1.68 -8 1 C-2.25 -1.125 -2.25 -1.125 0 0 Z " fill="#E2E2E2" transform="translate(521,324)"/>
<path d="M0 0 C0.66 0.33 1.32 0.66 2 1 C0.35 2.65 -1.3 4.3 -3 6 C-3.99 5.34 -4.98 4.68 -6 4 C-4.02 2.68 -2.04 1.36 0 0 Z " fill="#E2E2E2" transform="translate(472,337)"/>
<path d="M0 0 C0.66 1.32 1.32 2.64 2 4 C-0.97 6.475 -0.97 6.475 -4 9 C-4.66 8.67 -5.32 8.34 -6 8 C-4.02 5.36 -2.04 2.72 0 0 Z " fill="#DBDBDB" transform="translate(613,265)"/>
<path d="M0 0 C1.98 1.32 3.96 2.64 6 4 C3.18185434 5.40907283 1.82722796 4.50872691 -1.125 3.5625 C-2.03507813 3.27503906 -2.94515625 2.98757812 -3.8828125 2.69140625 C-4.58148437 2.46324219 -5.28015625 2.23507813 -6 2 C-2.25 0.875 -2.25 0.875 0 2 C0 1.34 0 0.68 0 0 Z " fill="#D0D0D0" transform="translate(576,235)"/>
<path d="M0 0 C3 0 3 0 5 1 C4.01 2.98 3.02 4.96 2 7 C1.34 6.67 0.68 6.34 0 6 C0 4.02 0 2.04 0 0 Z " fill="#E5E5E5" transform="translate(608,169)"/>
<path d="M0 0 C0.66 0.66 1.32 1.32 2 2 C-1.465 4.97 -1.465 4.97 -5 8 C-4 4 -4 4 -1.9375 2.75 C-1.298125 2.5025 -0.65875 2.255 0 2 C0 1.34 0 0.68 0 0 Z " fill="#E9E9E9" transform="translate(285,426)"/>
<path d="M0 0 C2.2344598 4.03292745 2.54496743 7.44967434 3 12 C0.89366282 10.29171079 0.06198392 9.47851584 -0.29296875 6.73828125 C-0.25816406 5.93777344 -0.22335937 5.13726562 -0.1875 4.3125 C-0.16042969 3.50425781 -0.13335937 2.69601563 -0.10546875 1.86328125 C-0.07066406 1.24839844 -0.03585937 0.63351563 0 0 Z " fill="#D0D0D0" transform="translate(379,208)"/>
<path d="M0 0 C-0.33 1.65 -0.66 3.3 -1 5 C-1.99 5 -2.98 5 -4 5 C-4 4.34 -4 3.68 -4 3 C-4.99 2.67 -5.98 2.34 -7 2 C-2.25 0 -2.25 0 0 0 Z " fill="#E3E3E3" transform="translate(544,200)"/>
<path d="M0 0 C-1.37154504 2.95409701 -2.98863724 5.44008376 -5 8 C-5.36625971 3.48279689 -5.36625971 3.48279689 -3.625 1.1875 C-2 0 -2 0 0 0 Z " fill="#DCDCDC" transform="translate(304,404)"/>
<path d="M0 0 C-2.66559313 1.77706209 -5.0280615 2.87548273 -8 4 C-7.625 2.0625 -7.625 2.0625 -7 0 C-4.3333581 -1.33332095 -2.83319697 -0.67102033 0 0 Z " fill="#E1E1E1" transform="translate(559,347)"/>
<path d="M0 0 C0.99 0.33 1.98 0.66 3 1 C0.03 3.475 0.03 3.475 -3 6 C-2.625 3.5625 -2.625 3.5625 -2 1 C-1.34 0.67 -0.68 0.34 0 0 Z " fill="#DEDEDE" transform="translate(610,313)"/>
<path d="M0 0 C0.66 0.66 1.32 1.32 2 2 C1.64644564 4.26274788 1.02455574 5.95088852 0 8 C-0.66 8 -1.32 8 -2 8 C-1.47731534 5.23723823 -0.89130413 2.6739124 0 0 Z " fill="#E0E0E0" transform="translate(430,266)"/>
<path d="M0 0 C2.64 0 5.28 0 8 0 C5.37801226 2.15377564 3.35595828 3.40072174 0 4 C0 2.68 0 1.36 0 0 Z " fill="#DEDEDE" transform="translate(521,109)"/>
</svg>
