<?xml version="1.0" encoding="UTF-8"?>
<svg version="1.1" xmlns="http://www.w3.org/2000/svg" width="200" height="200">
<path d="M0 0 C66 0 132 0 200 0 C200 66 200 132 200 200 C134 200 68 200 0 200 C0 134 0 68 0 0 Z " fill="#FEFEFD" transform="translate(0,0)"/>
<path d="M0 0 C12.09068025 10.30972899 18.13119377 22.05608449 22.5625 37.0625 C22.83682106 37.925336 22.83682106 37.925336 23.11668396 38.80560303 C23.75344306 42.02912921 23.69291825 45.22162763 23.67602539 48.49316406 C23.67617142 49.23501953 23.67631744 49.976875 23.6764679 50.74121094 C23.67577269 53.18687897 23.66799866 55.63247031 23.66015625 58.078125 C23.65829068 59.77634642 23.65686743 61.47456838 23.65586853 63.17279053 C23.65205432 67.63783255 23.64223339 72.10284194 23.63116455 76.56787109 C23.6191262 81.92767665 23.61454297 87.28749314 23.60871124 92.64730835 C23.59902106 100.78572825 23.57985683 108.92407657 23.5625 117.0625 C7.3925 117.0625 -8.7775 117.0625 -25.4375 117.0625 C-25.45167969 112.03 -25.46585937 106.9975 -25.48046875 101.8125 C-25.50053966 98.61321197 -25.52206987 95.4140658 -25.54882812 92.21484375 C-25.59110808 87.14333592 -25.62815135 82.07218795 -25.63305664 77.00048828 C-25.63735351 72.90878576 -25.66592977 68.81789055 -25.71093178 64.72644043 C-25.72386272 63.17009189 -25.72823012 61.61364651 -25.72365379 60.05725098 C-25.54560134 48.08528393 -25.54560134 48.08528393 -31.4375 38.0625 C-36.30759742 34.43824146 -41.57604162 34.23576498 -47.4375 35.0625 C-51.42235726 36.40086762 -54.02437176 38.59501278 -56.8125 41.75 C-59.54572907 47.32158234 -60.1019789 51.84757033 -58.3125 57.8125 C-55.70765284 62.32756842 -52.75187638 65.18624908 -48.4375 68.0625 C-43.4875 68.7225 -38.5375 69.3825 -33.4375 70.0625 C-33.4375 85.9025 -33.4375 101.7425 -33.4375 118.0625 C-38.15913173 119.95115269 -41.56047178 120.41357715 -46.5 120.375 C-47.25369873 120.36936035 -48.00739746 120.3637207 -48.78393555 120.35791016 C-64.89645085 120.01155195 -79.57692863 113.26789902 -90.74609375 101.6640625 C-104.81393842 85.48485497 -110.01748584 66.75072761 -108.70361328 45.73974609 C-106.97210857 28.31985553 -98.17024508 12.74177481 -85.04492188 1.37158203 C-60.23889157 -18.83041288 -25.39680271 -19.48878516 0 0 Z " fill="#F1A502" transform="translate(142.4375,46.9375)"/>
<path d="M0 0 C2.77657975 5.18294886 3.14362932 9.60062125 3.11352539 15.43066406 C3.11367142 16.17251953 3.11381744 16.914375 3.1139679 17.67871094 C3.11327269 20.12437897 3.10549866 22.56997031 3.09765625 25.015625 C3.09579068 26.71384642 3.09436743 28.41206838 3.09336853 30.11029053 C3.08955432 34.57533255 3.07973339 39.04034194 3.06866455 43.50537109 C3.0566262 48.86517665 3.05204297 54.22499314 3.04621124 59.58480835 C3.03652106 67.72322825 3.01735683 75.86157657 3 84 C-13.17 84 -29.34 84 -46 84 C-46 60.57 -46 37.14 -46 13 C-45.34 13 -44.68 13 -44 13 C-44 35.77 -44 58.54 -44 82 C-28.82 82 -13.64 82 2 82 C1.85108386 69.65618912 1.85108386 69.65618912 1.69335938 57.3125 C1.62707438 52.27802422 1.56182086 47.24354987 1.50268555 42.20898438 C1.4549449 38.15001186 1.40259869 34.09112248 1.34705925 30.03224945 C1.32667962 28.4837323 1.30795936 26.9351924 1.29092598 25.38663483 C1.26678453 23.21763387 1.23674364 21.04878883 1.20532227 18.87988281 C1.18977798 17.64522278 1.1742337 16.41056274 1.15821838 15.13848877 C1.02781411 12.55173283 0.7135502 10.46465849 0 8 C-0.12205329 5.32459184 -0.04467313 2.68038762 0 0 Z " fill="#E6AE37" transform="translate(163,80)"/>
<path d="M0 0 C0.68126953 -0.00386719 1.36253906 -0.00773437 2.06445312 -0.01171875 C6.12593354 -0.00391571 9.95347503 0.34186873 13.9375 1.125 C13.9375 1.455 13.9375 1.785 13.9375 2.125 C13.11548096 2.15005615 12.29346191 2.1751123 11.4465332 2.20092773 C7.71420626 2.31712655 3.98211683 2.43974505 0.25 2.5625 C-1.04357422 2.60181641 -2.33714844 2.64113281 -3.66992188 2.68164062 C-4.91708984 2.72353516 -6.16425781 2.76542969 -7.44921875 2.80859375 C-9.16951294 2.86358032 -9.16951294 2.86358032 -10.92456055 2.91967773 C-13.73243278 3.10340298 -16.32475814 3.4949382 -19.0625 4.125 C-19.0625 4.785 -19.0625 5.445 -19.0625 6.125 C-28.47252278 9.38468109 -28.47252278 9.38468109 -33.0625 10.125 C-30.36051218 6.75759727 -26.71716824 5.52060466 -22.8125 4 C-22.16925781 3.73574219 -21.52601562 3.47148438 -20.86328125 3.19921875 C-14.00195054 0.47953635 -7.34908386 -0.04195481 0 0 Z " fill="#E2AB35" transform="translate(100.0625,32.875)"/>
<path d="M0 0 C4.45515057 1.20660328 8.72248706 2.60049793 13.0078125 4.31640625 C17.10013422 5.72063429 20.99117618 6.12285862 25.30078125 6.09765625 C26.27724609 6.09443359 27.25371094 6.09121094 28.25976562 6.08789062 C29.77086914 6.07532227 29.77086914 6.07532227 31.3125 6.0625 C32.33923828 6.05798828 33.36597656 6.05347656 34.42382812 6.04882812 C36.94927882 6.03708184 39.47460905 6.02065565 42 6 C36.73380185 8.68248458 32.77884512 9.13736548 26.8125 9.125 C25.56082031 9.12757813 24.30914062 9.13015625 23.01953125 9.1328125 C20 9 20 9 19 8 C17.48530552 7.76807135 15.96245438 7.58784762 14.4375 7.4375 C13.61121094 7.35371094 12.78492187 7.26992187 11.93359375 7.18359375 C11.29550781 7.12300781 10.65742187 7.06242188 10 7 C10 6.34 10 5.68 10 5 C8.68 5 7.36 5 6 5 C6 4.34 6 3.68 6 3 C4.35 3 2.7 3 1 3 C0.67 2.01 0.34 1.02 0 0 Z " fill="#FEFDDA" transform="translate(67,160)"/>
<path d="M0 0 C0.85722656 0.00064453 1.71445313 0.00128906 2.59765625 0.00195312 C8.85910689 0.04660689 8.85910689 0.04660689 10 1.1875 C11.34747084 1.41825082 12.70377565 1.59903063 14.0625 1.75 C15.361875 1.894375 16.66125 2.03875 18 2.1875 C18 2.8475 18 3.5075 18 4.1875 C17.319375 4.1153125 16.63875 4.043125 15.9375 3.96875 C3.97459285 2.82336527 -8.0661416 2.58101906 -20 4.1875 C-19 2.1875 -19 2.1875 -17.28515625 1.5612793 C-11.45895235 0.28455733 -5.95443129 -0.0882482 0 0 Z " fill="#FEF9D5" transform="translate(102,30.8125)"/>
<path d="M0 0 C1.49197256 3.87912865 0.36647599 6.18825118 -1 10 C-1.55352509 12.30899037 -2.04946212 14.62511211 -2.53515625 16.94921875 C-3 19 -3 19 -4 22 C-4.14573058 23.47965926 -4.24663268 24.96403843 -4.31640625 26.44921875 C-4.35830078 27.29677734 -4.40019531 28.14433594 -4.44335938 29.01757812 C-4.48267578 29.89865234 -4.52199219 30.77972656 -4.5625 31.6875 C-4.60568359 32.58017578 -4.64886719 33.47285156 -4.69335938 34.39257812 C-4.79935353 36.59490108 -4.90142051 38.79733473 -5 41 C-5.33 41 -5.66 41 -6 41 C-6.64807775 26.70839012 -6.5416899 13.0833798 0 0 Z " fill="#E7AD34" transform="translate(40,71)"/>
<path d="M0 0 C4.03944581 1.38495285 6.70033698 3.32884422 10 6 C14.17108918 8.79708334 17.94606023 10.5069327 23 11 C23 11.66 23 12.32 23 13 C23.99 13 24.98 13 26 13 C26 13.66 26 14.32 26 15 C15.86207653 12.69092849 6.91145306 7.86475693 0 0 Z " fill="#E5AD36" transform="translate(54,150)"/>
<path d="M0 0 C-2.31 0.66 -4.62 1.32 -7 2 C-7 2.66 -7 3.32 -7 4 C-16.41002278 7.25968109 -16.41002278 7.25968109 -21 8 C-18.26400511 4.55927916 -14.4681432 3.30702381 -10.5 1.75 C-9.82324219 1.46898437 -9.14648438 1.18796875 -8.44921875 0.8984375 C-3.37259939 -1.1241998 -3.37259939 -1.1241998 0 0 Z " fill="#E7B13E" transform="translate(88,35)"/>
<path d="M0 0 C3.79231326 1.02708484 7.46108043 2.14151218 11.125 3.5625 C14.0611761 4.69355616 16.87858698 5.51227922 20 6 C20 6.33 20 6.66 20 7 C16.7 7 13.4 7 10 7 C10 6.34 10 5.68 10 5 C8.68 5 7.36 5 6 5 C6 4.34 6 3.68 6 3 C4.35 3 2.7 3 1 3 C0.67 2.01 0.34 1.02 0 0 Z " fill="#FDF4C9" transform="translate(67,160)"/>
<path d="M0 0 C0.33 0 0.66 0 1 0 C1 1.65 1 3.3 1 5 C-0.65 5.33 -2.3 5.66 -4 6 C-4 6.99 -4 7.98 -4 9 C-4.99 9 -5.98 9 -7 9 C-7 9.66 -7 10.32 -7 11 C-7.66 10.67 -8.32 10.34 -9 10 C-7.8758824 8.70756532 -6.75067408 7.41607925 -5.625 6.125 C-4.99851562 5.40570313 -4.37203125 4.68640625 -3.7265625 3.9453125 C-2.52573166 2.5923402 -1.2791655 1.2791655 0 0 Z " fill="#E7AB27" transform="translate(55,51)"/>
<path d="M0 0 C0.66 0.33 1.32 0.66 2 1 C1.67 1.66 1.34 2.32 1 3 C0.34 3 -0.32 3 -1 3 C-1.33 4.65 -1.66 6.3 -2 8 C-3.65 8 -5.3 8 -7 8 C-5.50902342 4.2047869 -3.24299151 2.38957269 0 0 Z " fill="#FDF7D1" transform="translate(92,82)"/>
<path d="M0 0 C-1.93546116 1.14927384 -3.87344128 2.29430642 -5.8125 3.4375 C-6.89144531 4.07558594 -7.97039062 4.71367188 -9.08203125 5.37109375 C-12 7 -12 7 -15 8 C-13.74874616 4.24623848 -12.4347596 3.75926711 -9 2 C-8.34 2 -7.68 2 -7 2 C-7 1.34 -7 0.68 -7 0 C-3.98968256 -0.93423645 -3.13349732 -1.04449911 0 0 Z " fill="#FEF6CF" transform="translate(74,39)"/>
<path d="M0 0 C1.3303125 0.7115625 1.3303125 0.7115625 2.6875 1.4375 C5.57042756 2.79737149 7.87610623 3.54060386 11 4 C11 4.33 11 4.66 11 5 C8.69 5.66 6.38 6.32 4 7 C3.67 6.01 3.34 5.02 3 4 C2.01 3.67 1.02 3.34 0 3 C0 2.01 0 1.02 0 0 Z " fill="#E8AA1F" transform="translate(88,112)"/>
<path d="M0 0 C2.86867231 1.38264837 5.56024032 2.92148553 8.25 4.625 C8.95640625 5.07101563 9.6628125 5.51703125 10.390625 5.9765625 C10.92171875 6.31429687 11.4528125 6.65203125 12 7 C11.01 7.33 10.02 7.66 9 8 C6.98079663 6.69593116 4.98075027 5.36176581 3 4 C2.01 4 1.02 4 0 4 C0 2.68 0 1.36 0 0 Z " fill="#FEF5CE" transform="translate(55,152)"/>
<path d="M0 0 C2.31 1.98 4.62 3.96 7 6 C6.67 6.66 6.34 7.32 6 8 C4.02 7.01 2.04 6.02 0 5 C0 3.35 0 1.7 0 0 Z " fill="#EBB02F" transform="translate(145,50)"/>
<path d="M0 0 C1.32 0.33 2.64 0.66 4 1 C2.07423885 3.43929746 0.19909405 5.80090595 -2 8 C-2.33 6.02 -2.66 4.04 -3 2 C-2.01 2.33 -1.02 2.66 0 3 C0 2.01 0 1.02 0 0 Z " fill="#E9A725" transform="translate(85,84)"/>
<path d="M0 0 C0.66 0.33 1.32 0.66 2 1 C1.01 4.3 0.02 7.6 -1 11 C-1.33 11 -1.66 11 -2 11 C-2 8.36 -2 5.72 -2 3 C-1.34 3 -0.68 3 0 3 C0 2.01 0 1.02 0 0 Z " fill="#FFF4C9" transform="translate(37,74)"/>
</svg>
